 <svg
         width="37"
         height="37"
         viewBox="0 0 64 64"
         xmlns="http://www.w3.org/2000/svg"
         aria-labelledby="title"
         aria-describedby="desc"
         role="img"
      >
         <title>Man</title>

         <path
            strokeWidth="4"
            strokeMiterlimit="10"
            stroke="#00c0fa"
            fill="none"
            d="M41.713 48.744c-1.968-1.476-1.71-3.069-1.71-4.244v-4m-16 1v3c0 1.285.425 3.083-2.194 4.67"
            data-name="layer2"
            strokeLinejoin="round"
            strokeLinecap="round"
         ></path>
         <path
            strokeWidth="4"
            strokeMiterlimit="10"
            stroke="#00c0fa"
            fill="none"
            d="M37.601 42.5a16.786 16.786 0 0 0 7.168-10.135c3.026-.037 4.234-2.931 4.234-6.937 0-1.994 0-4.928-3-4.928v-2m-29 0v2.006c-2-.006-3 2.994-3 4.988 0 4.006 1.391 7.006 4.436 7.006h.002a15.21 15.21 0 0 0 7.17 10m20.392-24v-2c0-10.4-7.373-14-14-14s-15 3.517-15 13.916V18.5c12 0 13-8 21-8 7.459 0 8 8 8 8z"
            data-name="layer2"
            strokeLinejoin="round"
            strokeLinecap="round"
         ></path>
         <path
            strokeWidth="4"
            strokeMiterlimit="10"
            stroke="#00c0fa"
            fill="none"
            d="M14.003 51.5c-12.61 2-12.001 11-12.001 11h30L21.809 49.17c-1.458.885-3.856 1.703-7.806 2.33zm36 0c-4.436-.74-6.91-1.72-8.29-2.756L32.002 62.5h30s0-9-12-11z"
            data-name="layer1"
            strokeLinejoin="round"
            strokeLinecap="round"
         ></path>
      </svg>