 <svg
         width="37"
         height="37"
         xmlns="http://www.w3.org/2000/svg"
         viewBox="0 0 64 64"
         aria-labelledby="title"
         aria-describedby="desc"
         role="img"
      >
         <title>Women</title>

         <path
            data-name="layer1"
            d="M49 17c0 17.2 2.9 18.9 7 23a70.8 70.8 0 0 1-16 2v2c0 2 0 6 10 8s10 10 10 10H4s0-8 10.2-10 9.8-6 9.8-8v-2a71 71 0 0 1-16-2c4.1-4.1 8-5.8 8-23 0 0 0-14 12-14 0 0 21-6.5 21 14z"
            fill="none"
            stroke="#00c0fa"
            strokeMiterlimit="10"
            strokeWidth="4"
            strokeLinejoin="round"
            strokeLinecap="round"
         ></path>
      </svg>