<?xml version="1.0" encoding="utf-8"?>
<!-- Generator: Adobe Illustrator 24.1.3, SVG Export Plug-In . SVG Version: 6.00 Build 0)  -->
<svg version="1.1" xmlns="http://www.w3.org/2000/svg" xmlns:xlink="http://www.w3.org/1999/xlink" x="0px" y="0px"
	 viewBox="0 0 3600 2250" style="enable-background:new 0 0 3600 2250;" xml:space="preserve">
<style type="text/css">
	.st0{fill:#33226C;}
	.st1{fill:#FFB300;}
	.st2{opacity:0.51;fill:#33226C;}
	.st3{fill:#471F5E;}
	.st4{fill:#31236C;}
	.st5{opacity:0.3;fill:#31236C;}
	.st6{fill:#FBB1A6;}
	.st7{fill:#F1F2F2;}
	.st8{opacity:0.46;fill:#F1F2F2;}
	.st9{fill:#D1D3D4;}
	.st10{fill:url(#SVGID_1_);}
	.st11{opacity:0.19;fill:url(#SVGID_2_);}
	.st12{fill:url(#SVGID_3_);}
	.st13{fill:url(#SVGID_4_);}
	.st14{opacity:0.52;fill:#FFB300;}
	.st15{fill:url(#SVGID_5_);}
	.st16{opacity:0.1;fill:url(#SVGID_6_);}
	.st17{fill:url(#SVGID_7_);}
	.st18{fill:url(#SVGID_8_);}
	.st19{opacity:0.44;fill:url(#SVGID_9_);}
	.st20{fill:url(#SVGID_10_);}
	.st21{fill:url(#SVGID_11_);}
	.st22{fill:url(#SVGID_12_);}
	.st23{opacity:0.26;fill:#FBB1A6;}
	.st24{fill:url(#SVGID_13_);}
	.st25{opacity:0.33;fill:url(#SVGID_14_);}
	.st26{fill:url(#SVGID_15_);}
	.st27{opacity:0.33;fill:url(#SVGID_16_);}
	.st28{fill:#362478;}
	.st29{fill:url(#SVGID_17_);}
	.st30{fill:url(#SVGID_18_);}
	.st31{opacity:0.1;}
	.st32{fill:url(#SVGID_19_);}
	.st33{fill:url(#SVGID_20_);}
</style>
<g>
	<rect x="1721.08" y="1076.27" class="st0" width="19.5" height="689.08"/>
	<rect x="769.26" y="1076.27" class="st0" width="19.5" height="689.08"/>
	<path class="st1" d="M1248.14,1682.29c0,0-26.55,69.99-9.65,79.04c16.89,9.05,174.38,0,174.38,0s13.88-27.35-28.36-37.51
		c-42.24-10.16-61.54-35.5-61.54-35.5L1248.14,1682.29z"/>
	<path class="st1" d="M973.95,1682.29c0,0-26.55,69.99-9.65,79.04c16.89,9.05,174.38,0,174.38,0s13.88-27.35-28.36-37.51
		c-42.24-10.16-61.54-35.5-61.54-35.5L973.95,1682.29z"/>
	<path class="st0" d="M2032.54,1091.22H474.57c-3.01,0-5.44-2.44-5.44-5.44v-6.45c0-3.01,2.44-5.44,5.44-5.44h1557.97
		c3.01,0,5.44,2.44,5.44,5.44v6.45C2037.99,1088.78,2035.55,1091.22,2032.54,1091.22z"/>
	<path class="st2" d="M2032.54,1073.89H474.57c-3.01,0-5.44,2.44-5.44,5.44v4.82c0-3.01,2.44-5.44,5.44-5.44h1557.97
		c3.01,0,5.44,2.44,5.44,5.44v-4.82C2037.99,1076.32,2035.55,1073.89,2032.54,1073.89z"/>
	<rect x="1969.2" y="1076.27" class="st0" width="19.5" height="689.08"/>
	<path class="st3" d="M1495.96,866.08c0,0,47.96,80.35,47.96,131.75c0,29.16-33.95,61.38-33.95,61.38l-190.62-0.27
		c0,0,111.31-31.18,83.29-99.56c-28.03-68.38-45.36-93.3-45.36-93.3H1495.96z"/>
	<path class="st4" d="M1143.8,1202.6c0,0,209.45,14.52,285.28,80.97c23.83,36.12,36.83,39-98.96,405.94c0,0-53.45,26-89.57-7.22
		c41.89-148.8,62.12-296.15,62.12-296.15s-158.91,17.34-196.47-2.89C1068.65,1363.03,1077.39,1241.53,1143.8,1202.6z"/>
	<path class="st4" d="M869.75,1202.6c0,0,209.45,14.52,285.28,80.97c23.83,36.12,36.83,39-98.96,405.94c0,0-53.45,26-89.57-7.22
		c41.89-148.8,62.12-296.15,62.12-296.15s-112.31,5.35-150.3-14.04C810.4,1337.43,803.34,1241.53,869.75,1202.6z"/>
	<path class="st5" d="M869.75,1202.6c0,0,209.45,14.52,285.28,80.97c23.83,36.12,36.83,39-98.96,405.94c0,0-53.45,26-89.57-7.22
		c41.89-148.8,62.12-296.15,62.12-296.15s-112.31,5.35-150.3-14.04C810.4,1337.43,803.34,1241.53,869.75,1202.6z"/>
	<rect x="521.14" y="1076.27" class="st0" width="19.5" height="689.08"/>
	<path class="st6" d="M1403.84,993.86c0,0,39.94-14.74,59.91-2.82c22.39,13.36,32.5,31.45,37.92,60.67
		c4.34,23.4-27.09-15.17-33.59-18.06c-6.5-2.89-20.21,25.28-39,18.06c-18.79-7.22-28.18-53.88-28.18-53.88"/>
	<polygon class="st7" points="1985.14,880.65 1822.44,880.65 1740.58,1073.5 1903.28,1073.5 	"/>
	<path class="st8" d="M1921.9,880.65h-99.5l-66.03,155.55c15.59,8.12,33.04,12.67,51.48,12.67c65.92,0,119.35-58.14,119.35-129.85
		C1927.2,905.66,1925.35,892.77,1921.9,880.65z"/>
	<polygon class="st9" points="1985.14,880.65 2011.98,1073.5 1903.28,1073.5 	"/>
	<g>
		<path class="st9" d="M1932.96,956.25h-115.03c-2.24,0-3.76-2.29-2.88-4.35l0,0c0.49-1.16,1.63-1.91,2.88-1.91h115.03
			c2.24,0,3.76,2.29,2.88,4.35v0C1935.35,955.5,1934.21,956.25,1932.96,956.25z"/>
		<path class="st9" d="M1924.12,977.07h-115.03c-2.24,0-3.76-2.29-2.88-4.35l0,0c0.49-1.16,1.63-1.91,2.88-1.91h115.03
			c2.24,0,3.76,2.29,2.88,4.35l0,0C1926.51,976.32,1925.37,977.07,1924.12,977.07z"/>
		<path class="st9" d="M1915.27,997.9h-115.03c-2.24,0-3.76-2.29-2.88-4.35l0,0c0.49-1.16,1.63-1.91,2.88-1.91h115.03
			c2.24,0,3.76,2.29,2.88,4.35l0,0C1917.67,997.15,1916.53,997.9,1915.27,997.9z"/>
		<path class="st9" d="M1864.69,1015.53h-71.93c-2.24,0-3.76-2.29-2.88-4.35l0,0c0.49-1.16,1.63-1.91,2.88-1.91h71.93
			c2.24,0,3.76,2.29,2.88,4.35l0,0C1867.08,1014.78,1865.95,1015.53,1864.69,1015.53z"/>
		<path class="st9" d="M1890.24,1056.89h-71.93c-2.24,0-3.76-2.29-2.88-4.35l0,0c0.49-1.16,1.63-1.91,2.88-1.91h71.93
			c2.24,0,3.76,2.29,2.88,4.35l0,0C1892.63,1056.14,1891.49,1056.89,1890.24,1056.89z"/>
	</g>
	<g>
		<g>
			<path class="st9" d="M1848.14,902.52l-12.6,29.69h-6.87l12.6-29.69H1848.14z"/>
			<polygon class="st9" points="1856.25,902.52 1853.87,908.11 1856.49,908.11 1866.33,908.11 1845.46,932.21 1852.92,932.21 
				1874.67,906.97 1876.56,902.52 			"/>
		</g>
	</g>
	<g>
		<path class="st1" d="M681.84,972.52c0.3-5.62-4.17-10.34-9.8-10.34h-42.83h-21.61h-42.83c-5.63,0-10.09,4.72-9.8,10.34
			c1.09,20.69,6.73,68.08,34.92,101.37h17.71h21.61h17.71C675.11,1040.59,680.75,993.21,681.84,972.52z"/>
		<linearGradient id="SVGID_1_" gradientUnits="userSpaceOnUse" x1="543.8541" y1="688.4884" x2="644.4874" y2="1075.1323">
			<stop  offset="0" style="stop-color:#6AD0FB"/>
			<stop  offset="0.2275" style="stop-color:#6ACDFA"/>
			<stop  offset="0.3874" style="stop-color:#69C4F5"/>
			<stop  offset="0.5266" style="stop-color:#69B4EE"/>
			<stop  offset="0.654" style="stop-color:#689EE4"/>
			<stop  offset="0.7733" style="stop-color:#6682D6"/>
			<stop  offset="0.8849" style="stop-color:#6560C6"/>
			<stop  offset="0.9917" style="stop-color:#6337B3"/>
			<stop  offset="0.9947" style="stop-color:#6336B2"/>
		</linearGradient>
		<path class="st10" d="M601.41,962.18c0,0-57.32-70.08-46.44-223.07c88.59,92.63,63.45,223.07,63.45,223.07H601.41z"/>
		<linearGradient id="SVGID_2_" gradientUnits="userSpaceOnUse" x1="550.0148" y1="686.8846" x2="650.6481" y2="1073.5291">
			<stop  offset="0" style="stop-color:#6AD0FB"/>
			<stop  offset="0.2275" style="stop-color:#6ACDFA"/>
			<stop  offset="0.3874" style="stop-color:#69C4F5"/>
			<stop  offset="0.5266" style="stop-color:#69B4EE"/>
			<stop  offset="0.654" style="stop-color:#689EE4"/>
			<stop  offset="0.7733" style="stop-color:#6682D6"/>
			<stop  offset="0.8849" style="stop-color:#6560C6"/>
			<stop  offset="0.9917" style="stop-color:#6337B3"/>
			<stop  offset="0.9947" style="stop-color:#6336B2"/>
		</linearGradient>
		<path class="st11" d="M554.97,739.11c-0.01,0.18-0.02,0.36-0.03,0.54c69.35,87.75,49.87,196.6,44.6,220.03
			c1.19,1.67,1.87,2.5,1.87,2.5h17.01C618.41,962.18,643.56,831.74,554.97,739.11z"/>
		<linearGradient id="SVGID_3_" gradientUnits="userSpaceOnUse" x1="634.7999" y1="643.8571" x2="642.7446" y2="1060.1611">
			<stop  offset="0" style="stop-color:#6AD0FB"/>
			<stop  offset="0.2275" style="stop-color:#6ACDFA"/>
			<stop  offset="0.3874" style="stop-color:#69C4F5"/>
			<stop  offset="0.5266" style="stop-color:#69B4EE"/>
			<stop  offset="0.654" style="stop-color:#689EE4"/>
			<stop  offset="0.7733" style="stop-color:#6682D6"/>
			<stop  offset="0.8849" style="stop-color:#6560C6"/>
			<stop  offset="0.9917" style="stop-color:#6337B3"/>
			<stop  offset="0.9947" style="stop-color:#6336B2"/>
		</linearGradient>
		<path class="st12" d="M660.55,663.83c0,0-81.16,88.81-42.14,298.35h10.8C629.22,962.18,687.61,804.33,660.55,663.83z"/>
		<linearGradient id="SVGID_4_" gradientUnits="userSpaceOnUse" x1="707.9827" y1="784.8166" x2="627.476" y2="1013.6254">
			<stop  offset="0" style="stop-color:#6AD0FB"/>
			<stop  offset="0.2275" style="stop-color:#6ACDFA"/>
			<stop  offset="0.3874" style="stop-color:#69C4F5"/>
			<stop  offset="0.5266" style="stop-color:#69B4EE"/>
			<stop  offset="0.654" style="stop-color:#689EE4"/>
			<stop  offset="0.7733" style="stop-color:#6682D6"/>
			<stop  offset="0.8849" style="stop-color:#6560C6"/>
			<stop  offset="0.9917" style="stop-color:#6337B3"/>
			<stop  offset="0.9947" style="stop-color:#6336B2"/>
		</linearGradient>
		<path class="st13" d="M718.49,780.86c0,0-67.53,49.49-89.27,181.32h8.54C637.76,962.18,725.43,873.6,718.49,780.86z"/>
		<path class="st14" d="M629.22,1073.89h17.71c6.39-7.55,11.62-15.83,15.9-24.36c-65.1-5.29-71.56-52.16-71.46-71.29
			c0.02-4.46-3.61-8.07-8.07-8.07h-28.15l0,0c-0.14,0.76-0.21,1.54-0.17,2.35c1.09,20.69,6.73,68.08,34.92,101.37h17.71H629.22z"/>
	</g>
	<polygon class="st3" points="1019.93,877.32 1079.94,450.35 1829.27,450.35 1769.27,877.32 	"/>
	<linearGradient id="SVGID_5_" gradientUnits="userSpaceOnUse" x1="1378.5192" y1="261.0143" x2="1467.8435" y2="1041.7815">
		<stop  offset="0" style="stop-color:#6AD0FB"/>
		<stop  offset="0.2275" style="stop-color:#6ACDFA"/>
		<stop  offset="0.3874" style="stop-color:#69C4F5"/>
		<stop  offset="0.5266" style="stop-color:#69B4EE"/>
		<stop  offset="0.654" style="stop-color:#689EE4"/>
		<stop  offset="0.7733" style="stop-color:#6682D6"/>
		<stop  offset="0.8849" style="stop-color:#6560C6"/>
		<stop  offset="0.9917" style="stop-color:#6337B3"/>
		<stop  offset="0.9947" style="stop-color:#6336B2"/>
	</linearGradient>
	<polygon class="st15" points="1759.61,866.08 1032.75,866.08 1089.6,461.59 1816.46,461.59 	"/>
	<path class="st6" d="M1147.48,606.72c0,0,3.79,21.6-4.94,51.2c-4.51,15.28-3.73,31.67,2.78,46.2c0.05,0.11,0.1,0.21,0.14,0.32
		c1.91,4.21,0.37,9.17-3.61,11.52c-0.99,0.58-2.11,1.16-3.39,1.72c-3.67,1.6-6.4,4.8-7.27,8.71l-5.25,23.63l-39.97-7.7l-11.08-88.6
		l33.23-61.64L1147.48,606.72z"/>
	<path class="st6" d="M1065.71,746.92c0,0-13.32,15.87-15.48,47.65l-93.66-5.78l13.37-43.1l60.43-115.81l35.35-3.61
		C1065.71,626.27,1075.77,673.26,1065.71,746.92z"/>
	<linearGradient id="SVGID_6_" gradientUnits="userSpaceOnUse" x1="1054.2852" y1="640.3749" x2="1721.9364" y2="640.3749">
		<stop  offset="0" style="stop-color:#6AD0FB"/>
		<stop  offset="0.2275" style="stop-color:#6ACDFA"/>
		<stop  offset="0.3874" style="stop-color:#69C4F5"/>
		<stop  offset="0.5266" style="stop-color:#69B4EE"/>
		<stop  offset="0.654" style="stop-color:#689EE4"/>
		<stop  offset="0.7733" style="stop-color:#6682D6"/>
		<stop  offset="0.8849" style="stop-color:#6560C6"/>
		<stop  offset="0.9917" style="stop-color:#6337B3"/>
		<stop  offset="0.9947" style="stop-color:#6336B2"/>
	</linearGradient>
	<path class="st16" d="M1054.29,718.95c67.32,60.78,175.68,100.22,297.89,100.22c204.21,0,369.76-110.1,369.76-245.92
		c0-40.2-14.51-78.15-40.23-111.66h-591.26L1054.29,718.95z"/>
	<linearGradient id="SVGID_7_" gradientUnits="userSpaceOnUse" x1="890.9703" y1="717.6619" x2="1179.1716" y2="600.6478">
		<stop  offset="0" style="stop-color:#43295D"/>
		<stop  offset="1" style="stop-color:#774B88"/>
	</linearGradient>
	<path class="st17" d="M1124.35,759.63c-1.58,9.47-10.9,15.62-20.21,13.26c-17.86-4.52-42.63-15.1-39.83-38.76
		c4.33-36.6,9.63-97.27-13.96-95.83c-23.6,1.44-19.74,29.86-9.15,52.01c10.59,22.15-34.19,60.67-71.27,55.38
		c0,0,2.65-23.35-16.37-49.6c-25.91-35.75-32.26-57.3-33.71-77.05c-1.44-19.74,6.74-45.75,32.74-53.93
		c8.1-23.83,50.64-61.81,172.42-20.11c3.73,1.28,7.53,2.32,11.43,2.93c19.53,3.04,32.85-3.04,32.85-3.04s5.35,31.53-10.36,52.51
		c-6.53,8.72-17.2,13.36-28.04,12.28c-25-2.48-37.31,10.22-42.02,28.63c-5.3,20.71-13,89.57,6.26,99.68
		c19.26,10.11,30.82,12.04,30.82,12.04L1124.35,759.63z"/>
	<linearGradient id="SVGID_8_" gradientUnits="userSpaceOnUse" x1="1368.3104" y1="897.9457" x2="1528.2513" y2="1269.13">
		<stop  offset="0" style="stop-color:#965BF1"/>
		<stop  offset="0.9947" style="stop-color:#BB68FA"/>
	</linearGradient>
	<rect x="1282.53" y="1059.21" class="st18" width="316.87" height="14.68"/>
	<linearGradient id="SVGID_9_" gradientUnits="userSpaceOnUse" x1="1370.7764" y1="906.2347" x2="1525.2885" y2="1264.8202">
		<stop  offset="0" style="stop-color:#965BF1"/>
		<stop  offset="0.9947" style="stop-color:#BB68FA"/>
	</linearGradient>
	<rect x="1282.53" y="1064.34" class="st19" width="316.87" height="9.54"/>
	<path class="st5" d="M1282.06,1699.07c33.44-110.63,72.24-320.92,72.24-320.92l-51.63,7.99c0,0-16.83,122.6-51.58,257.06
		c-2.24,13.93-4.4,28.59-6.16,42.75C1256.61,1694.91,1269.71,1698.42,1282.06,1699.07z"/>
	<linearGradient id="SVGID_10_" gradientUnits="userSpaceOnUse" x1="1243.8497" y1="1853.2223" x2="1203.9923" y2="1382.6508">
		<stop  offset="0" style="stop-color:#43295D"/>
		<stop  offset="1" style="stop-color:#774B88"/>
	</linearGradient>
	<path class="st20" d="M1161.23,1385.44l-18.7,6.19c-5.75,1.91-8.75,8.23-6.59,13.89l153.52,402.1c1.75,4.57,6.39,7.36,11.25,6.76
		l0,0c6.65-0.83,10.89-7.52,8.79-13.89l-134.82-408.3C1172.83,1386.62,1166.81,1383.59,1161.23,1385.44z"/>
	<linearGradient id="SVGID_11_" gradientUnits="userSpaceOnUse" x1="994.3499" y1="1874.3547" x2="954.4924" y2="1403.7816">
		<stop  offset="0" style="stop-color:#43295D"/>
		<stop  offset="1" style="stop-color:#774B88"/>
	</linearGradient>
	<path class="st21" d="M1005.38,1378.35l19.32,3.84c5.94,1.18,9.7,7.08,8.25,12.97l-102.76,417.97c-1.17,4.75-5.43,8.1-10.33,8.1
		l0,0c-6.7,0-11.73-6.12-10.43-12.7l83.44-421.8C994.02,1380.96,999.62,1377.21,1005.38,1378.35z"/>
	<linearGradient id="SVGID_12_" gradientUnits="userSpaceOnUse" x1="737.7689" y1="1831.156" x2="917.7701" y2="1355.4397">
		<stop  offset="0" style="stop-color:#43295D"/>
		<stop  offset="1" style="stop-color:#774B88"/>
	</linearGradient>
	<path class="st22" d="M881.69,1383.16l21.28,5.84c6.55,1.8,10.27,8.69,8.18,15.15L762.87,1862.9c-1.69,5.22-6.72,8.61-12.19,8.22
		l0,0c-7.49-0.54-12.62-7.78-10.64-15.02l127.01-464.58C868.79,1385.16,875.35,1381.42,881.69,1383.16z"/>
	<path class="st23" d="M1027.67,793.18l22.56,1.39c2.17-31.78,15.48-47.65,15.48-47.65c0.75-5.47,1.38-10.79,1.92-15.95
		C1058.92,735.55,1031.04,754.51,1027.67,793.18z"/>
	<linearGradient id="SVGID_13_" gradientUnits="userSpaceOnUse" x1="755.2537" y1="891.9822" x2="1086.9685" y2="1085.8036">
		<stop  offset="0" style="stop-color:#9A72F6"/>
		<stop  offset="1" style="stop-color:#724CE4"/>
	</linearGradient>
	<path class="st24" d="M919.69,792.47c0,0-61.96,0.72-118.3,113.4c-56.34,112.68-54.15,123.28-54.15,123.28
		s-29.64,116.53,143.71,63.08L919.69,792.47z"/>
	<linearGradient id="SVGID_14_" gradientUnits="userSpaceOnUse" x1="793.1492" y1="982.9061" x2="911.8229" y2="982.9061">
		<stop  offset="0" style="stop-color:#9A72F6"/>
		<stop  offset="1" style="stop-color:#724CE4"/>
	</linearGradient>
	<path class="st25" d="M911.82,905.85c-7.63-27.72-13.89-46.29-13.89-46.29S746.14,1020,807.95,1105.97
		c20.82,1.38,48.71-2.24,86.01-13.74L911.82,905.85z"/>
	<linearGradient id="SVGID_15_" gradientUnits="userSpaceOnUse" x1="799.4586" y1="1018.8159" x2="1623.231" y2="1161.0739">
		<stop  offset="0" style="stop-color:#9A72F6"/>
		<stop  offset="1" style="stop-color:#724CE4"/>
	</linearGradient>
	<path class="st26" d="M825.95,1039.43c0,0-1.44-62.12,18.78-138.68c20.22-76.56,26.05-123.59,160.37-114.52
		c134.33,9.07,124.62,17.73,143.2,30.74c15,10.5,81.5,122.02,106.52,164.53c5.9,10.03,16.9,15.92,28.52,15.29
		c34.5-1.88,104.91-5.57,114.67-5.03c13,0.72,35.39,34.67,30.34,64.29c-109.79,39-164.22,59.95-205.86,47.67
		c-48.59-14.33-83.91-114.76-94.99-118.46c-2.99,25.07-14.11,144.08,13.37,202.97c30.34,65.01-180.62,173.35-314.95,99.68
		C827.39,1130.44,825.95,1039.43,825.95,1039.43z"/>
	<linearGradient id="SVGID_16_" gradientUnits="userSpaceOnUse" x1="927.3314" y1="963.4417" x2="1800.7302" y2="1497.7369">
		<stop  offset="0" style="stop-color:#9A72F6"/>
		<stop  offset="1" style="stop-color:#724CE4"/>
	</linearGradient>
	<path class="st27" d="M1423.59,1024.06c-13.3,8.31-153.84,93.36-212.65,15.66c-61.76-81.61-87.43-165.42-140.76-105.87
		c-53.33,59.55-58.08,222.76-56.81,229.38c0.86,4.45,26.27,75.79,42.82,122c59.01-26.31,97.76-66.27,83.54-96.73
		c-27.48-58.89-16.36-177.9-13.37-202.97c11.08,3.7,46.4,104.13,94.99,118.46c41.64,12.28,96.07-8.67,205.86-47.67
		C1429.06,1045.54,1427.25,1034.18,1423.59,1024.06z"/>
	<path class="st28" d="M779.72,1228.68c0,0-20.22-206.58,154.57-206.58c190.86,0,163.24,195.02,214.01,268.7
		c21.27,45.93,57.49,82.31,92.21,100.38c34.71,18.08-213.16,99.11-346.66,23.13C784.06,1351.83,779.72,1228.68,779.72,1228.68z"/>
	<linearGradient id="SVGID_17_" gradientUnits="userSpaceOnUse" x1="815.4839" y1="1222.8098" x2="1244.4569" y2="1222.8098">
		<stop  offset="0" style="stop-color:#533AA9"/>
		<stop  offset="1" style="stop-color:#2F2070"/>
	</linearGradient>
	<path class="st29" d="M1241.16,1391.18c-34.71-18.08-70.94-54.46-92.21-100.38c-50.76-73.68-23.15-268.7-214.01-268.7
		c-59.73,0-96.69,24.13-119.46,55.88c20.4-11.63,46.15-18.77,78.65-18.77c190.86,0,163.24,195.02,214.01,268.7
		c19.54,42.2,51.71,76.33,83.74,95.61C1231.25,1411.29,1253.2,1397.45,1241.16,1391.18z"/>
	<linearGradient id="SVGID_18_" gradientUnits="userSpaceOnUse" x1="1165.6675" y1="1945.0171" x2="1057.6677" y2="1310.5186">
		<stop  offset="0" style="stop-color:#43295D"/>
		<stop  offset="1" style="stop-color:#774B88"/>
	</linearGradient>
	<path class="st30" d="M1062.81,1381.9L1062.81,1381.9c-12.68,2.52-20.7,15.11-17.61,27.67l112.41,457.23
		c1.31,5.32,6.08,9.07,11.57,9.07l0,0c7.51,0,13.14-6.86,11.68-14.22l-91.37-461.89C1087.06,1387.45,1075.11,1379.46,1062.81,1381.9
		z"/>
	<polygon class="st1" points="1926.94,929.19 1903.28,929.19 1913.32,905.53 1936.98,905.53 	"/>
	<g class="st31">
		<linearGradient id="SVGID_19_" gradientUnits="userSpaceOnUse" x1="1075.0928" y1="541.975" x2="1094.2822" y2="737.0671">
			<stop  offset="0" style="stop-color:#43295D"/>
			<stop  offset="1" style="stop-color:#774B88"/>
		</linearGradient>
		<path class="st32" d="M1124.57,758.32l1.38-8.3c0,0-11.56-1.93-30.82-12.04c-16.18-8.49-13.33-58.43-8.87-86.47
			c-6.33,1.09-12.89,3.9-19.65,8.8c3.3,20.68,0.32,51.66-2.3,73.82c-2.72,23.01,20.62,33.64,38.34,38.37
			C1112.7,775.19,1122.86,768.58,1124.57,758.32z"/>
		<linearGradient id="SVGID_20_" gradientUnits="userSpaceOnUse" x1="982.5239" y1="547.2711" x2="1002.3739" y2="749.0792">
			<stop  offset="0" style="stop-color:#43295D"/>
			<stop  offset="1" style="stop-color:#774B88"/>
		</linearGradient>
		<path class="st33" d="M951.28,692.92c0.74,1.05,1.5,2.1,2.27,3.17c19.02,26.24,16.37,49.6,16.37,49.6
			c37.08,5.3,81.86-33.23,71.27-55.38c-0.83-1.74-1.62-3.52-2.35-5.32C1009.53,705.95,977.97,703.14,951.28,692.92z"/>
	</g>
	
		<ellipse transform="matrix(0.7315 -0.6819 0.6819 0.7315 -21.3063 1131.1315)" class="st7" cx="1425.5" cy="592.62" rx="38.53" ry="33.48"/>
	<path class="st7" d="M1478.93,677.83h-135.04c-2.9,0-5.13-2.57-4.73-5.44l0.63-4.45c0.33-2.36,2.35-4.11,4.73-4.11h135.04
		c2.9,0,5.13,2.57,4.73,5.44l-0.63,4.45C1483.33,676.08,1481.31,677.83,1478.93,677.83z"/>
	<path class="st7" d="M1474.33,710.77h-135.04c-2.9,0-5.13-2.57-4.73-5.44l0.63-4.45c0.33-2.36,2.35-4.11,4.73-4.11h135.04
		c2.9,0,5.13,2.57,4.73,5.44l-0.63,4.45C1478.73,709.02,1476.71,710.77,1474.33,710.77z"/>
	<path class="st1" d="M1416.42,762.77h-35.79c-2.9,0-5.13-2.57-4.73-5.44l0.63-4.45c0.33-2.36,2.35-4.11,4.73-4.11h35.79
		c2.9,0,5.13,2.57,4.73,5.44l-0.63,4.45C1420.81,761.01,1418.8,762.77,1416.42,762.77z"/>
</g>
</svg>
